<svg width="95" height="95" viewBox="0 0 95 95" fill="none" xmlns="http://www.w3.org/2000/svg">
<path d="M62.7522 23.7727L74.5183 39.4608H82.3623C86.7158 39.4608 90.2064 42.9514 90.2064 47.3048V59.0709H82.3623C82.3623 62.1914 81.1227 65.1842 78.9161 67.3907C76.7096 69.5973 73.7168 70.8369 70.5963 70.8369C67.4757 70.8369 64.483 69.5973 62.2764 67.3907C60.0699 65.1842 58.8302 62.1914 58.8302 59.0709H35.2981C35.2981 62.1914 34.0585 65.1842 31.8519 67.3907C29.6454 69.5973 26.6526 70.8369 23.5321 70.8369C20.4115 70.8369 17.4188 69.5973 15.2122 67.3907C13.0057 65.1842 11.766 62.1914 11.766 59.0709H3.922V47.3048C3.922 42.9514 7.41259 39.4608 11.766 39.4608L23.5321 23.7727H62.7522ZM41.1812 29.6558H26.4736L19.061 39.4608H41.1812V29.6558ZM47.0642 29.6558V39.4608H67.2233L59.8107 29.6558H47.0642ZM23.5321 53.1879C21.9718 53.1879 20.4754 53.8077 19.3722 54.911C18.2689 56.0142 17.6491 57.5106 17.6491 59.0709C17.6491 60.6312 18.2689 62.1275 19.3722 63.2308C20.4754 64.3341 21.9718 64.9539 23.5321 64.9539C25.0924 64.9539 26.5887 64.3341 27.692 63.2308C28.7953 62.1275 29.4151 60.6312 29.4151 59.0709C29.4151 57.5106 28.7953 56.0142 27.692 54.911C26.5887 53.8077 25.0924 53.1879 23.5321 53.1879ZM70.5963 53.1879C69.036 53.1879 67.5396 53.8077 66.4363 54.911C65.3331 56.0142 64.7132 57.5106 64.7132 59.0709C64.7132 60.6312 65.3331 62.1275 66.4363 63.2308C67.5396 64.3341 69.036 64.9539 70.5963 64.9539C72.1565 64.9539 73.6529 64.3341 74.7562 63.2308C75.8595 62.1275 76.4793 60.6312 76.4793 59.0709C76.4793 57.5106 75.8595 56.0142 74.7562 54.911C73.6529 53.8077 72.1565 53.1879 70.5963 53.1879Z" fill="#5E9D12"/>
</svg>
