<svg width="96" height="96" viewBox="0 0 96 96" fill="none" xmlns="http://www.w3.org/2000/svg">
<path d="M64.212 24.3608H42.3577V40.2548H4.6095V60.1223H12.5565C12.5565 63.2838 13.8124 66.3158 16.0479 68.5513C18.2835 70.7869 21.3155 72.0428 24.477 72.0428C27.6385 72.0428 30.6705 70.7869 32.9061 68.5513C35.1416 66.3158 36.3975 63.2838 36.3975 60.1223H60.2385C60.2385 63.2838 61.4944 66.3158 63.7299 68.5513C65.9654 70.7869 68.9975 72.0428 72.159 72.0428C75.3205 72.0428 78.3525 70.7869 80.588 68.5513C82.8236 66.3158 84.0795 63.2838 84.0795 60.1223H92.0265V48.2018C92.0265 43.7912 88.49 40.2548 84.0795 40.2548H76.1325L64.212 24.3608ZM48.318 30.321H62.2252L70.0133 40.2548H48.318V30.321ZM24.477 54.162C26.0577 54.162 27.5738 54.79 28.6915 55.9077C29.8093 57.0255 30.4372 58.5415 30.4372 60.1223C30.4372 61.703 29.8093 63.219 28.6915 64.3368C27.5738 65.4546 26.0577 66.0825 24.477 66.0825C22.8962 66.0825 21.3802 65.4546 20.2625 64.3368C19.1447 63.219 18.5167 61.703 18.5167 60.1223C18.5167 58.5415 19.1447 57.0255 20.2625 55.9077C21.3802 54.79 22.8962 54.162 24.477 54.162ZM72.159 54.162C73.7397 54.162 75.2557 54.79 76.3735 55.9077C77.4913 57.0255 78.1192 58.5415 78.1192 60.1223C78.1192 61.703 77.4913 63.219 76.3735 64.3368C75.2557 65.4546 73.7397 66.0825 72.159 66.0825C70.5782 66.0825 69.0622 65.4546 67.9444 64.3368C66.8267 63.219 66.1987 61.703 66.1987 60.1223C66.1987 58.5415 66.8267 57.0255 67.9444 55.9077C69.0622 54.79 70.5782 54.162 72.159 54.162Z" fill="#DF4482"/>
</svg>
