<svg width="87" height="87" viewBox="0 0 87 87" fill="none" xmlns="http://www.w3.org/2000/svg">
<path d="M25.4953 50.8531C27.6386 50.8531 29.7338 51.4886 31.5159 52.6794C33.298 53.8702 34.687 55.5626 35.5072 57.5428C36.3274 59.523 36.542 61.7019 36.1239 63.804C35.7057 65.9062 34.6736 67.8371 33.1581 69.3527C31.6425 70.8682 29.7116 71.9003 27.6094 72.3185C25.5073 72.7366 23.3284 72.522 21.3482 71.7018C19.368 70.8816 17.6756 69.4926 16.4848 67.7105C15.294 65.9284 14.6585 63.8332 14.6585 61.6899L14.6765 61.0541C14.8387 58.2947 16.0492 55.7016 18.0603 53.8053C20.0714 51.909 22.7311 50.8529 25.4953 50.8531ZM65.2303 50.8531C67.3736 50.8531 69.4688 51.4886 71.2509 52.6794C73.033 53.8702 74.422 55.5626 75.2422 57.5428C76.0624 59.523 76.277 61.7019 75.8589 63.804C75.4407 65.9062 74.4086 67.8371 72.893 69.3527C71.3775 70.8682 69.4466 71.9003 67.3444 72.3185C65.2423 72.7366 63.0634 72.522 61.0832 71.7018C59.103 70.8816 57.4105 69.4926 56.2198 67.7105C55.029 65.9284 54.3935 63.8332 54.3935 61.6899L54.4115 61.0541C54.5737 58.2947 55.7841 55.7016 57.7953 53.8053C59.8064 51.909 62.4661 50.8529 65.2303 50.8531ZM25.4953 58.0776C24.5372 58.0776 23.6185 58.4582 22.941 59.1356C22.2636 59.813 21.883 60.7318 21.883 61.6899C21.883 62.6479 22.2636 63.5667 22.941 64.2441C23.6185 64.9216 24.5372 65.3021 25.4953 65.3021C26.4533 65.3021 27.3721 64.9216 28.0495 64.2441C28.727 63.5667 29.1076 62.6479 29.1076 61.6899C29.1076 60.7318 28.727 59.813 28.0495 59.1356C27.3721 58.4582 26.4533 58.0776 25.4953 58.0776ZM65.2303 58.0776C64.2722 58.0776 63.3534 58.4582 62.676 59.1356C61.9986 59.813 61.618 60.7318 61.618 61.6899C61.618 62.6479 61.9986 63.5667 62.676 64.2441C63.3534 64.9216 64.2722 65.3021 65.2303 65.3021C66.1883 65.3021 67.1071 64.9216 67.7845 64.2441C68.462 63.5667 68.8425 62.6479 68.8425 61.6899C68.8425 60.7318 68.462 59.813 67.7845 59.1356C67.1071 58.4582 66.1883 58.0776 65.2303 58.0776ZM52.3634 14.7303C54.7797 14.7306 57.1266 15.5384 59.0312 17.0254C60.9357 18.5124 62.2887 20.5933 62.8751 22.9374L64.4392 29.1794H72.4548C75.219 29.1793 77.8787 30.2354 79.8898 32.1317C81.9009 34.028 83.1114 36.6211 83.2736 39.3805L83.2916 40.0162V50.9253L83.2555 51.3479C83.1489 52.1351 82.7858 52.8651 82.2224 53.425L81.8359 53.7537L81.583 53.9307L81.3085 54.0824L80.9256 54.2486L80.8642 54.2667L80.6944 54.3245L80.3043 54.4148L79.878 54.4617L79.589 54.4689L79.1483 54.4256L78.6137 54.3064L78.3862 54.2269C77.892 54.0372 77.4456 53.7413 77.0785 53.36L76.7895 53.0204C75.4436 51.2259 73.6984 49.7694 71.6921 48.7662C69.6858 47.7631 67.4734 47.2408 65.2303 47.2408C62.9871 47.2408 60.7748 47.7631 58.7684 48.7662C56.7621 49.7694 55.0169 51.2259 53.671 53.0204C53.3345 53.4691 52.8982 53.8332 52.3966 54.084C51.8951 54.3348 51.342 54.4653 50.7812 54.4653H39.9444C39.3836 54.4653 38.8305 54.3348 38.3289 54.084C37.8273 53.8332 37.391 53.4691 37.0545 53.0204C35.7091 51.2236 33.9634 49.7652 31.9559 48.7609C29.9485 47.7566 27.7345 47.2341 25.4899 47.2348C23.2452 47.2355 21.0316 47.7594 19.0247 48.7649C17.0179 49.7705 15.2731 51.23 13.9288 53.0277C13.6446 53.4076 13.2884 53.7279 12.8805 53.9702C12.4726 54.2125 12.0209 54.3721 11.5513 54.4399C11.0817 54.5076 10.6034 54.4822 10.1436 54.3651C9.6838 54.248 9.25158 54.0415 8.87161 53.7573C8.49164 53.4732 8.17136 53.117 7.92905 52.709C7.68674 52.3011 7.52715 51.8495 7.45939 51.3799C7.39164 50.9103 7.41704 50.4319 7.53415 49.9721C7.65126 49.5123 7.85778 49.0801 8.14193 48.7001C9.92278 46.3161 12.1516 44.3654 14.6585 42.9133V32.8278C14.6547 32.3968 14.7281 31.9687 14.8752 31.5635L15.0269 31.2023L22.2659 16.7279C22.5657 16.128 23.0266 15.6234 23.5969 15.2706C24.1673 14.9178 24.8246 14.7307 25.4953 14.7303H52.3634ZM7.43393 21.9549C8.39196 21.9549 9.31076 22.3355 9.98819 23.0129C10.6656 23.6903 11.0462 24.6091 11.0462 25.5672V40.0162C11.0462 40.9743 10.6656 41.8931 9.98819 42.5705C9.31076 43.2479 8.39196 43.6285 7.43393 43.6285C6.47589 43.6285 5.5571 43.2479 4.87966 42.5705C4.20223 41.8931 3.82166 40.9743 3.82166 40.0162V25.5672C3.82166 24.6091 4.20223 23.6903 4.87966 23.0129C5.5571 22.3355 6.47589 21.9549 7.43393 21.9549ZM52.3634 21.9549H39.9444V29.1794H56.9871L55.8673 24.6894C55.6716 23.9082 55.2205 23.2149 54.5856 22.7194C53.9508 22.224 53.1686 21.9549 52.3634 21.9549ZM32.7198 21.9549H27.7277L24.1118 29.1794H32.7198V21.9549Z" fill="#0084B5"/>
</svg>
