<svg width="67" height="67" viewBox="0 0 67 67" fill="none" xmlns="http://www.w3.org/2000/svg">
<path d="M48.6445 27.3852L48.0869 27.1869L43.3984 18.3965C42.5178 16.7446 41.2047 15.3631 39.5997 14.3997C37.9946 13.4364 36.1578 12.9274 34.2858 12.9273H22.4799C20.312 12.9272 18.199 13.6094 16.4404 14.8772C14.6817 16.1451 13.3667 17.9342 12.6816 19.991L10.4469 26.6953C8.5746 27.4845 6.97671 28.8084 5.85324 30.5013C4.72976 32.1942 4.13064 34.1809 4.13086 36.2127V40.8103C4.13086 43.7432 5.87819 46.263 8.3856 47.399C8.71031 49.2594 9.66261 50.9524 11.0839 52.196C12.5052 53.4396 14.3096 54.1588 16.1967 54.2336C18.0838 54.3085 19.9395 53.7346 21.4549 52.6075C22.9702 51.4804 24.0536 49.8681 24.5247 48.0392H41.5684C42.0395 49.8681 43.1229 51.4804 44.6383 52.6075C46.1536 53.7346 48.0094 54.3085 49.8964 54.2336C51.7835 54.1588 53.5879 53.4396 55.0092 52.196C56.4305 50.9524 57.3828 49.2594 57.7075 47.399C58.9755 46.8266 60.0514 45.9005 60.8061 44.7318C61.5608 43.5631 61.9622 42.2015 61.9623 40.8103V39.41C61.9619 37.2782 61.3019 35.1987 60.0727 33.4569C58.8435 31.7152 57.1053 30.3965 55.0969 29.6819L48.8593 27.4637V27.3852H48.6445ZM16.5935 21.2964C17.005 20.061 17.7951 18.9867 18.8518 18.2259C19.9084 17.4651 21.1779 17.0565 22.4799 17.0582H26.8503V27.3852H14.5694L16.5935 21.2964ZM43.5099 27.3852H30.9812V17.0582H34.2858C35.4091 17.0578 36.5114 17.3627 37.4748 17.9404C38.4381 18.5182 39.2263 19.3469 39.755 20.338L43.5099 27.3852ZM12.3925 45.9738C12.3925 44.8783 12.8277 43.8276 13.6024 43.0529C14.3771 42.2782 15.4277 41.843 16.5233 41.843C17.6189 41.843 18.6696 42.2782 19.4442 43.0529C20.2189 43.8276 20.6541 44.8783 20.6541 45.9738C20.6541 47.0694 20.2189 48.1201 19.4442 48.8948C18.6696 49.6694 17.6189 50.1047 16.5233 50.1047C15.4277 50.1047 14.3771 49.6694 13.6024 48.8948C12.8277 48.1201 12.3925 47.0694 12.3925 45.9738ZM49.5698 41.843C50.6654 41.843 51.7161 42.2782 52.4907 43.0529C53.2654 43.8276 53.7006 44.8783 53.7006 45.9738C53.7006 47.0694 53.2654 48.1201 52.4907 48.8948C51.7161 49.6694 50.6654 50.1047 49.5698 50.1047C48.4743 50.1047 47.4236 49.6694 46.6489 48.8948C45.8742 48.1201 45.439 47.0694 45.439 45.9738C45.439 44.8783 45.8742 43.8276 46.6489 43.0529C47.4236 42.2782 48.4743 41.843 49.5698 41.843Z" fill="#C18D00"/>
</svg>
