<svg width="101" height="101" viewBox="0 0 101 101" fill="none" xmlns="http://www.w3.org/2000/svg">
<path d="M50.7941 31.3873H29.8256L17.2445 41.8716H13.0508C8.39584 41.8716 4.66345 45.604 4.66345 50.259V62.8401H13.7638C15.5671 67.8725 20.3059 71.2275 25.6319 71.2275C30.9579 71.2275 35.6968 67.8725 37.4582 62.8401H64.0881C65.8914 67.8725 70.6303 71.2275 75.9563 71.2275C81.2823 71.2275 86.0212 67.8725 87.7825 62.8401H96.9248V58.6464C96.9248 53.9914 92.6053 52.4816 88.5374 50.259L50.7941 31.3873ZM22.4867 46.0653L31.9225 37.6779H48.6973L65.4721 46.0653H22.4867ZM25.6319 52.3558C27.3003 52.3558 28.9003 53.0186 30.08 54.1983C31.2597 55.378 31.9225 56.978 31.9225 58.6464C31.9225 60.3147 31.2597 61.9147 30.08 63.0944C28.9003 64.2741 27.3003 64.9369 25.6319 64.9369C23.9636 64.9369 22.3636 64.2741 21.1838 63.0944C20.0041 61.9147 19.3414 60.3147 19.3414 58.6464C19.3414 56.978 20.0041 55.378 21.1838 54.1983C22.3636 53.0186 23.9636 52.3558 25.6319 52.3558ZM75.9563 52.3558C77.6247 52.3558 79.2247 53.0186 80.4044 54.1983C81.5841 55.378 82.2468 56.978 82.2468 58.6464C82.2468 60.3147 81.5841 61.9147 80.4044 63.0944C79.2247 64.2741 77.6247 64.9369 75.9563 64.9369C74.2879 64.9369 72.6879 64.2741 71.5082 63.0944C70.3285 61.9147 69.6658 60.3147 69.6658 58.6464C69.6658 56.978 70.3285 55.378 71.5082 54.1983C72.6879 53.0186 74.2879 52.3558 75.9563 52.3558Z" fill="#DA403B"/>
</svg>
