<svg width="97" height="97" viewBox="0 0 97 97" fill="none" xmlns="http://www.w3.org/2000/svg">
<path d="M12.125 28.2917C7.63877 28.2917 4.04169 31.8887 4.04169 36.375V68.7083H12.125C12.125 71.9241 13.4025 75.0081 15.6764 77.282C17.9502 79.5559 21.0343 80.8333 24.25 80.8333C27.4658 80.8333 30.5498 79.5559 32.8237 77.282C35.0976 75.0081 36.375 71.9241 36.375 68.7083H60.625C60.625 71.9241 61.9025 75.0081 64.1763 77.282C66.4502 79.5559 69.5343 80.8333 72.75 80.8333C75.9658 80.8333 79.0498 79.5559 81.3237 77.282C83.5976 75.0081 84.875 71.9241 84.875 68.7083H92.9584V52.5417C92.9584 48.0554 89.3613 44.4583 84.875 44.4583L72.75 28.2917H12.125ZM60.625 34.3542H70.7292L78.6508 44.4583H60.625V34.3542ZM24.25 62.6458C25.8579 62.6458 27.3999 63.2846 28.5369 64.4215C29.6738 65.5584 30.3125 67.1005 30.3125 68.7083C30.3125 70.3162 29.6738 71.8582 28.5369 72.9952C27.3999 74.1321 25.8579 74.7708 24.25 74.7708C22.6421 74.7708 21.1001 74.1321 19.9632 72.9952C18.8262 71.8582 18.1875 70.3162 18.1875 68.7083C18.1875 67.1005 18.8262 65.5584 19.9632 64.4215C21.1001 63.2846 22.6421 62.6458 24.25 62.6458ZM72.75 62.6458C74.3579 62.6458 75.8999 63.2846 77.0368 64.4215C78.1738 65.5584 78.8125 67.1005 78.8125 68.7083C78.8125 70.3162 78.1738 71.8582 77.0368 72.9952C75.8999 74.1321 74.3579 74.7708 72.75 74.7708C71.1421 74.7708 69.6001 74.1321 68.4632 72.9952C67.3262 71.8582 66.6875 70.3162 66.6875 68.7083C66.6875 67.1005 67.3262 65.5584 68.4632 64.4215C69.6001 63.2846 71.1421 62.6458 72.75 62.6458Z" fill="#9C5ABD"/>
</svg>
