<svg width="94" height="93" viewBox="0 0 94 93" fill="none" xmlns="http://www.w3.org/2000/svg">
<path d="M70.0905 71.6271C68.5503 71.6271 67.0731 71.0152 65.9839 69.9261C64.8948 68.8369 64.2829 67.3598 64.2829 65.8195C64.2829 64.2792 64.8948 62.802 65.9839 61.7129C67.0731 60.6238 68.5503 60.0119 70.0905 60.0119C71.6308 60.0119 73.108 60.6238 74.1971 61.7129C75.2863 62.802 75.8981 64.2792 75.8981 65.8195C75.8981 67.3598 75.2863 68.8369 74.1971 69.9261C73.108 71.0152 71.6308 71.6271 70.0905 71.6271ZM75.8981 36.7815L83.4867 46.4608H66.2188V36.7815M23.6297 71.6271C22.0895 71.6271 20.6123 71.0152 19.5231 69.9261C18.434 68.8369 17.8221 67.3598 17.8221 65.8195C17.8221 64.2792 18.434 62.802 19.5231 61.7129C20.6123 60.6238 22.0895 60.0119 23.6297 60.0119C25.17 60.0119 26.6472 60.6238 27.7363 61.7129C28.8255 62.802 29.4373 64.2792 29.4373 65.8195C29.4373 67.3598 28.8255 68.8369 27.7363 69.9261C26.6472 71.0152 25.17 71.6271 23.6297 71.6271ZM77.834 30.9739H66.2188V15.4869H12.0145C7.7169 15.4869 4.27106 18.9328 4.27106 23.2304V65.8195H12.0145C12.0145 68.9 13.2383 71.8544 15.4165 74.0327C17.5948 76.2109 20.5492 77.4347 23.6297 77.4347C26.7103 77.4347 29.6646 76.2109 31.8429 74.0327C34.0212 71.8544 35.2449 68.9 35.2449 65.8195H58.4753C58.4753 68.9 59.6991 71.8544 61.8773 74.0327C64.0556 76.2109 67.01 77.4347 70.0905 77.4347C73.1711 77.4347 76.1254 76.2109 78.3037 74.0327C80.482 71.8544 81.7057 68.9 81.7057 65.8195H89.4492V46.4608L77.834 30.9739Z" fill="#9C5ABD"/>
</svg>
