<svg width="39" height="43" viewBox="0 0 39 43" fill="none" xmlns="http://www.w3.org/2000/svg">
<path d="M31.6875 17.5989C31.6875 21.3476 30.5525 24.8104 28.6406 27.6199L38.284 37.9676C39.2361 38.9885 39.2361 40.6464 38.284 41.6673C37.3318 42.6882 35.7855 42.6882 34.8334 41.6673L25.19 31.3196C22.5697 33.3777 19.34 34.5864 15.8438 34.5864C7.0916 34.5864 0 26.9829 0 17.5989C0 8.21489 7.0916 0.611328 15.8438 0.611328C24.5959 0.611328 31.6875 8.21489 31.6875 17.5989ZM14.0156 24.7859C14.0156 25.8721 14.8307 26.746 15.8438 26.746C16.8568 26.746 17.6719 25.8721 17.6719 24.7859V19.559H22.5469C23.56 19.559 24.375 18.6851 24.375 17.5989C24.375 16.5127 23.56 15.6388 22.5469 15.6388H17.6719V10.4118C17.6719 9.32561 16.8568 8.45174 15.8438 8.45174C14.8307 8.45174 14.0156 9.32561 14.0156 10.4118V15.6388H9.14062C8.12754 15.6388 7.3125 16.5127 7.3125 17.5989C7.3125 18.6851 8.12754 19.559 9.14062 19.559H14.0156V24.7859Z" fill="white"/>
</svg>
